<?xml version="1.0" encoding="UTF-8"?>
<svg version="1.1" xmlns="http://www.w3.org/2000/svg" width="1024" height="1024">
<path d="M0 0 C1.27435199 -0.00521549 2.54870398 -0.01043099 3.8616727 -0.01580453 C5.26842989 -0.01148078 6.67518651 -0.00696749 8.08194256 -0.002285 C9.58213553 -0.00458999 11.08232737 -0.00776677 12.58251685 -0.01173949 C16.70178883 -0.02009119 20.82096818 -0.01596048 24.9402405 -0.00976706 C29.38411788 -0.005245 33.82797924 -0.01222519 38.27185345 -0.0177269 C46.97701645 -0.02662582 55.68214499 -0.02469647 64.38730935 -0.01890162 C71.46327484 -0.01438623 78.53923067 -0.01377169 85.61519718 -0.01594925 C87.12542725 -0.01640895 87.12542725 -0.01640895 88.66616702 -0.01687793 C90.71149424 -0.01751738 92.75682145 -0.01816581 94.80214866 -0.01882312 C113.98786084 -0.0245281 133.17355392 -0.01796634 152.35926297 -0.00722238 C168.81791375 0.0017092 185.27653631 0.00016465 201.73518658 -0.00905991 C220.84724905 -0.0197666 239.95929476 -0.02397446 259.07135981 -0.01783538 C261.11011167 -0.01719828 263.14886353 -0.01656954 265.18761539 -0.01594925 C266.1907152 -0.0156407 267.193815 -0.01533215 268.22731176 -0.01501425 C275.29242363 -0.0132882 282.35752486 -0.01620055 289.42263508 -0.02090836 C298.0362705 -0.02652179 306.64986947 -0.02499115 315.26350073 -0.01434687 C319.65748096 -0.00909578 324.05140045 -0.00702379 328.44538021 -0.01364517 C332.47032405 -0.01961861 336.49515105 -0.01630651 340.52008434 -0.00569007 C341.97362096 -0.0034619 343.42716751 -0.00457919 344.8806977 -0.00944164 C363.63377217 -0.06734722 363.63377217 -0.06734722 368.60212994 3.81418228 C371.95275274 11.98132536 370.74427877 22.08387924 370.73152447 30.78293228 C370.7328816 32.34286413 370.73466329 33.90279566 370.73683453 35.46272659 C370.7413747 39.68015079 370.73963258 43.89755038 370.73645544 48.11497498 C370.73391055 52.54994901 370.73627562 56.98492105 370.73784161 61.41989517 C370.73965862 68.87440745 370.73727085 76.3289098 370.73250103 83.78342056 C370.7270753 92.36120847 370.72881064 100.93897255 370.73432744 109.51675987 C370.73889107 116.912477 370.73949283 124.30818702 370.73688877 131.70390511 C370.73534172 136.10687906 370.73508822 140.50984189 370.73842525 144.91281509 C370.7413509 149.06284108 370.73924372 153.21283694 370.733531 157.36285973 C370.73222753 158.87153003 370.73255544 160.38020294 370.73479366 161.88887215 C370.74543439 169.8016128 370.61189327 177.6962636 370.21904278 185.59958267 C370.18868596 186.32144225 370.15832915 187.04330183 370.12705243 187.78703594 C369.9211424 191.41844182 369.66693559 193.15447379 367.60212994 196.25168228 C366.32337994 196.35480728 365.04462994 196.45793228 363.72712994 196.56418228 C351.10659039 197.69317623 341.99780876 206.57816085 333.60212994 215.25168228 C332.57221919 216.56204927 331.56452387 217.89095612 330.60212994 219.25168228 C326.49192133 224.25866367 322.11067887 229.03352153 317.75056744 233.82199478 C315.61494907 236.237185 313.59487149 238.71792493 311.60212994 241.25168228 C311.93212994 241.91168228 312.26212994 242.57168228 312.60212994 243.25168228 C311.96275494 243.54043228 311.32337994 243.82918228 310.66462994 244.12668228 C308.45006914 245.07991679 308.45006914 245.07991679 307.60212994 247.25168228 C306.94212994 247.25168228 306.28212994 247.25168228 305.60212994 247.25168228 C305.33279644 247.8349025 305.06346294 248.41812271 304.78596783 249.01901627 C303.59543948 251.26430018 302.28718696 253.02657361 300.66072369 254.97433853 C299.79241924 256.0205336 299.79241924 256.0205336 298.9065733 257.08786392 C298.29048199 257.82254898 297.67439068 258.55723404 297.03962994 259.31418228 C295.7582662 260.85575442 294.47701601 262.39742094 293.19587994 263.93918228 C292.57455181 264.68426041 291.95322369 265.42933853 291.31306744 266.19699478 C289.20811725 268.72485733 287.12097742 271.26686148 285.03962994 273.81418228 C284.34353619 274.66496353 283.64744244 275.51574478 282.93025494 276.39230728 C281.1439192 278.58626326 279.36331454 280.78440653 277.58650494 282.98605728 C274.27424572 287.08765885 270.94405475 291.17422349 267.60212994 295.25168228 C267.0446104 295.93391861 266.48709087 296.61615494 265.91267681 297.31906509 C264.2989057 299.28484593 262.67173756 301.23861463 261.03962994 303.18918228 C260.55131695 303.78642105 260.06300396 304.38365982 259.55989361 304.99899673 C257.01944721 308.00400217 255.48468048 309.61971615 251.60212994 310.25168228 C250.09120203 310.34024448 248.57690941 310.37895958 247.06338882 310.38031673 C246.15282528 310.38354118 245.24226173 310.38676563 244.30410534 310.39008778 C243.30752075 310.38853918 242.31093616 310.38699058 241.28415203 310.38539505 C240.22253855 310.38766061 239.16092506 310.38992616 238.06714147 310.39226037 C234.49814555 310.39860717 230.92918753 310.39777057 227.36018658 310.39694595 C224.80616488 310.39993699 222.25214363 310.40333939 219.69812298 310.40712357 C213.47391009 310.41505298 207.24971116 310.41817843 201.02549369 310.41873594 C195.96699169 310.41921102 190.90849281 310.42126534 185.8499918 310.42443657 C171.51119374 310.43324291 157.17240316 310.43785591 142.83360238 310.4371061 C141.67403695 310.43704616 141.67403695 310.43704616 140.49104595 310.43698502 C139.71705967 310.43694414 138.94307339 310.43690325 138.14563297 310.43686114 C125.59772436 310.43645455 113.04984574 310.4460273 100.5019458 310.46012338 C87.62078153 310.4744798 74.73963189 310.48139399 61.85845941 310.48052961 C54.62544643 310.48019741 47.3924649 310.48295452 40.15945911 310.49370766 C33.35923928 310.50375256 26.559097 310.50348484 19.75887012 310.49619102 C17.25988957 310.49514214 14.76090493 310.49752594 12.26193142 310.50355148 C8.85690563 310.51123141 5.45211203 310.50665308 2.04709148 310.49892044 C1.05273761 310.504064 0.05838374 310.50920757 -0.96610206 310.514507 C-9.65605343 310.47074378 -9.65605343 310.47074378 -13.39787006 308.25168228 C-20.06015347 297.5444411 -17.53662907 281.0127499 -17.51139545 268.7836647 C-17.51111286 266.85073727 -17.51127273 264.91780973 -17.51183796 262.98488235 C-17.5121231 257.77506498 -17.50627239 252.56527096 -17.499264 247.35545897 C-17.49298308 241.89690252 -17.49242293 236.43834543 -17.49123859 230.97978592 C-17.48813919 220.66000086 -17.47994466 210.34022649 -17.4698891 200.02044612 C-17.45868463 188.26462611 -17.45320662 176.50880557 -17.44819367 164.75298154 C-17.4377608 140.58587588 -17.42018845 116.41877968 -17.39787006 92.25168228 C-17.72787006 92.25168228 -18.05787006 92.25168228 -18.39787006 92.25168228 C-18.39787006 90.27168228 -18.39787006 88.29168228 -18.39787006 86.25168228 C-18.06787006 86.25168228 -17.73787006 86.25168228 -17.39787006 86.25168228 C-17.40310688 85.01007339 -17.4083437 83.76846451 -17.4137392 82.48923111 C-17.50520202 58.72146979 -17.5260719 34.99793056 -16.39787006 11.25168228 C-17.05787006 10.92168228 -17.71787006 10.59168228 -18.39787006 10.25168228 C-17.54228846 8.94707203 -16.66233827 7.65842878 -15.77287006 6.37668228 C-15.28560444 5.65738541 -14.79833881 4.93808853 -14.29630756 4.19699478 C-10.40175071 0.20627603 -5.33080343 0.0015756 0 0 Z M101.60212994 52.25168228 C97.67057308 56.76569201 97.45577501 60.82261303 97.46841717 66.58865738 C97.46615161 67.34173888 97.46388605 68.09482038 97.46155185 68.87072253 C97.45520675 71.40169593 97.45604154 73.93261585 97.45686626 76.46359634 C97.45387504 78.27531885 97.45047259 80.08704072 97.44668865 81.89876175 C97.4378394 86.8265863 97.43551011 91.7543935 97.43487287 96.68222523 C97.43392413 100.79493607 97.43024612 104.90764285 97.42670077 109.02035213 C97.41855222 118.72490567 97.41611685 128.42944993 97.4168272 138.1340065 C97.41742768 148.14447248 97.40688273 158.15488452 97.39108354 168.16533685 C97.37800494 176.75821952 97.37264346 185.35108457 97.37328261 193.94397712 C97.37353756 199.07667799 97.3706881 204.20933098 97.36010456 209.34202194 C97.35041857 214.1715586 97.35034787 219.00100164 97.35762119 223.83054161 C97.3586665 225.6014183 97.35630733 227.37230082 97.35026073 229.1431675 C97.34253001 231.56447894 97.34719275 233.98546799 97.35489178 236.40677261 C97.34974821 237.1041618 97.34460465 237.80155098 97.33930522 238.52007318 C97.37531717 243.66107162 97.85683446 248.88342015 100.98103619 253.12277603 C104.31169969 255.44220194 107.62802947 255.61242652 111.60212994 255.25168228 C115.89507269 253.78875983 119.72160021 251.56699158 123.60212994 249.25168228 C124.59478863 248.66217789 124.59478863 248.66217789 125.60750103 248.06076431 C130.18028575 245.32756951 134.71375773 242.53327563 139.23787212 239.72043228 C143.10057775 237.3208002 146.97461209 234.93978914 150.85212994 232.56418228 C151.60228374 232.10455093 152.35243755 231.64491959 153.1253233 231.17136002 C158.74161634 227.74454227 164.42613476 224.46352566 170.15291119 221.22433853 C177.75087969 216.87895451 185.27684728 212.38333843 192.66462994 207.68918228 C196.00232217 205.58266437 199.41855012 203.6352763 202.85212994 201.68918228 C209.39338592 197.98081649 215.84321126 194.1308962 222.28254986 190.24875259 C227.34263032 187.2008651 232.41412184 184.17333115 237.50056744 181.16965103 C238.38996769 180.64415161 238.38996769 180.64415161 239.29733562 180.10803604 C242.2135737 178.38536063 245.13098901 176.6647545 248.05012798 174.94699478 C251.24242524 173.06203286 254.42483151 171.16180521 257.60212994 169.25168228 C258.64965435 168.62672867 259.69717876 168.00177505 260.77644634 167.35788345 C261.76435162 166.75307144 262.75225689 166.14825943 263.77009869 165.52511978 C264.64819195 164.9919313 265.52628521 164.45874283 266.43098736 163.90939713 C269.29900254 161.71960481 270.49115306 159.6220676 271.36384869 156.15793228 C271.9378923 151.56558334 271.11697204 148.57155127 268.41462994 144.87668228 C265.37318705 141.63700668 262.06525586 139.66909336 258.18806744 137.52511978 C256.92561798 136.81872411 255.663999 136.11084247 254.40315533 135.40158463 C253.76661022 135.04393021 253.13006512 134.68627579 252.47423077 134.31778336 C247.38262694 131.41827911 242.41115938 128.31084096 237.41462994 125.25168228 C226.83305413 118.79462175 216.20090035 112.43110746 205.52791119 106.12594986 C198.13907596 101.75947864 190.76948186 97.36263675 183.41462994 92.93918228 C172.31054399 86.26221557 161.17365314 79.64151053 150.02717876 73.03561783 C143.50454096 69.1692455 136.98684023 65.29476512 130.48103619 61.40011978 C129.56522274 60.85304871 129.56522274 60.85304871 128.63090801 60.29492569 C125.09894344 58.17721924 121.62023087 55.99144929 118.16462994 53.75168228 C113.11553842 50.72726806 106.82714352 48.18778283 101.60212994 52.25168228 Z " fill="#E2B652" transform="translate(325.39787006378174,195.74831771850586)"/>
<path d="M0 0 C3.15979544 2.28580947 4.60451251 4.02291327 6.0625 7.625 C5.87279339 17.86915689 -0.78608574 28.07277144 -5.25 37.125 C-5.95786603 38.57116287 -6.66512923 40.01762094 -7.37182617 41.46435547 C-8.84042064 44.46958356 -10.31158241 47.47353341 -11.78466797 50.4765625 C-14.9833869 57.00199821 -18.15305603 63.54150033 -21.32189941 70.08148193 C-22.26530982 72.027651 -23.21009198 73.97314761 -24.15527344 75.91845703 C-26.89805629 81.56824215 -29.63381538 87.22083309 -32.3265686 92.89468384 C-39.21293506 107.39304824 -46.3136534 121.77737097 -53.49790502 136.13013554 C-55.06390896 139.25954615 -56.62790146 142.38996202 -58.19224548 145.52020264 C-60.81366242 150.76483635 -63.43672901 156.00864238 -66.06079102 161.25195312 C-69.06532224 167.25556694 -72.0669585 173.26062144 -75.06711298 179.26642346 C-77.67744339 184.49166625 -80.28937559 189.71610613 -82.90257734 194.93991351 C-84.44838835 198.03000167 -85.99370631 201.12033319 -87.53755379 204.21140289 C-96.67724641 222.50448887 -105.91632452 240.73298454 -115.9375 258.5625 C-116.52885742 259.61477783 -117.12021484 260.66705566 -117.72949219 261.7512207 C-125.38998314 275.30971216 -133.31963837 288.54809553 -142.58105469 301.07763672 C-144.18037934 303.24437491 -145.76603593 305.42080257 -147.3515625 307.59765625 C-152.74877071 314.9874061 -158.19214313 322.32688697 -163.875 329.5 C-165.17138693 331.14398438 -166.46726723 332.78836545 -167.76269531 334.43310547 C-168.59246871 335.48391164 -169.42519149 336.53239507 -170.26074219 337.57861328 C-171.43869017 339.06155732 -172.59491032 340.56168279 -173.75 342.0625 C-174.73226562 343.31740234 -174.73226562 343.31740234 -175.734375 344.59765625 C-177.20807012 346.92546047 -177.20807012 346.92546047 -176.94921875 349.5625 C-175.79664186 352.52220361 -174.43345261 353.83322748 -172.0625 355.9375 C-162.04650492 365.57132675 -155.01869857 377.10211597 -150 390 C-149.56558594 391.09957031 -149.13117188 392.19914062 -148.68359375 393.33203125 C-141.66442292 414.73194231 -145.29132304 438.70337349 -154.36328125 458.8125 C-156.80600205 463.56968419 -159.75179695 467.76638704 -163 472 C-163.56332031 472.78890625 -164.12664062 473.5778125 -164.70703125 474.390625 C-167.71097945 478.5713023 -167.71097945 478.5713023 -169 480 C-169.66 480 -170.32 480 -171 480 C-171.20882812 480.56074219 -171.41765625 481.12148438 -171.6328125 481.69921875 C-173.47837591 484.80503831 -176.02596862 486.68438237 -178.875 488.8125 C-179.45507812 489.24973389 -180.03515625 489.68696777 -180.6328125 490.13745117 C-192.5366147 498.95693941 -205.07013078 505.75584423 -220 507 C-220.33 507.66 -220.66 508.32 -221 509 C-250.57705283 509.66020207 -275.28707759 506.265902 -297.65625 485.3125 C-307.94050917 475.16536429 -314.78516391 463.99276135 -321 451 C-321.33 450.34 -321.66 449.68 -322 449 C-322.36611743 447.08932466 -322.69413082 445.17124081 -323 443.25 C-323.165 442.22390625 -323.33 441.1978125 -323.5 440.140625 C-323.665 439.10421875 -323.83 438.0678125 -324 437 C-324.18046875 436.06542969 -324.3609375 435.13085938 -324.546875 434.16796875 C-328.13055313 409.11311564 -320.41003839 387.02515943 -305.8046875 366.98828125 C-291.51744688 348.62994518 -270.96847497 338.29370387 -248.3359375 334.578125 C-245.01601452 334.08844329 -245.01601452 334.08844329 -242 333 C-238.99691062 333.00855581 -236.00804903 333.12998287 -233.0078125 333.2578125 C-229.3913154 332.94782703 -227.89814652 332.17975714 -225 330 C-223.62821353 327.73737431 -222.53653221 325.66776175 -221.4765625 323.26953125 C-221.16729828 322.60144943 -220.85803406 321.93336761 -220.53939819 321.24504089 C-219.55390134 319.10697359 -218.58940017 316.96015244 -217.625 314.8125 C-216.98570523 313.4193107 -216.34509063 312.02672624 -215.703125 310.63476562 C-214.41451436 307.83242215 -213.14495928 305.02251568 -211.88916016 302.20532227 C-210.65857288 299.44551131 -209.39202921 296.7076322 -208.09130859 293.98022461 C-203.96330936 285.18676145 -201.4576442 276.70373936 -199.76657104 267.14700317 C-199.36305827 264.87011687 -198.93481498 262.59903262 -198.50024414 260.32788086 C-197.92063232 257.29126724 -197.34834861 254.2534787 -196.78466797 251.21386719 C-193.1077549 231.41906333 -189.131681 216.53051175 -176.31445312 200.64111328 C-174.16707738 197.96008435 -172.08693039 195.22814765 -170 192.5 C-169.16301994 191.41256062 -168.32578037 190.32532092 -167.48828125 189.23828125 C-165.85464079 187.1151223 -164.22847924 184.98682837 -162.60546875 182.85546875 C-157.48244782 176.14340093 -152.2314526 169.55391482 -146.88964844 163.01464844 C-142.90065291 158.12619649 -138.97993005 153.18957434 -135.09399414 148.21899414 C-131.26188456 143.32075156 -127.37874235 138.46479262 -123.48681641 133.61401367 C-120.06757501 129.34744324 -116.68186796 125.05602623 -113.3125 120.75 C-109.41614011 115.77536755 -105.46097829 110.85581233 -101.4453125 105.9765625 C-98.44907474 102.32938491 -95.47429472 98.66507659 -92.5 95 C-88.13444179 89.62286421 -83.75835508 84.25469685 -79.3671875 78.8984375 C-77.55436791 76.67878051 -75.74760155 74.45474632 -73.9453125 72.2265625 C-72.83860314 70.85932524 -71.73183111 69.4921387 -70.625 68.125 C-69.8038269 67.10962158 -69.8038269 67.10962158 -68.96606445 66.07373047 C-66.25605517 62.73421984 -63.52266684 59.42082121 -60.72265625 56.15625 C-60.2107373 55.55925293 -59.69881836 54.96225586 -59.17138672 54.34716797 C-58.20230022 53.22246639 -57.22884361 52.10151145 -56.25048828 50.98486328 C-53.74539408 48.37129183 -53.74539408 48.37129183 -53 45 C-51.59268629 43.83295936 -50.18220222 42.66957434 -48.7578125 41.5234375 C-44.55420679 37.88031255 -41.15188276 33.38263451 -37.6015625 29.12109375 C-32.44395459 22.94450849 -27.1820746 16.87495141 -21.75 10.9375 C-20.90103149 9.99088501 -20.90103149 9.99088501 -20.03491211 9.02514648 C-14.26398058 2.79005144 -8.77890405 -1.27435704 0 0 Z M-162 223 C-162 223.66 -162 224.32 -162 225 C-162.8971875 225.061875 -162.8971875 225.061875 -163.8125 225.125 C-166.21181512 225.86639098 -166.21181512 225.86639098 -167.75 228.3125 C-169.53869664 233.5891551 -169.68967195 238.48262441 -169 244 C-167.43559628 247.51662056 -167.43559628 247.51662056 -165 250 C-164.38125 250.7425 -163.7625 251.485 -163.125 252.25 C-158.58864152 255.98582463 -153.71972111 256.49307941 -148 256 C-141.7977759 254.59147964 -138.56099599 252.23675881 -135 247 C-132.70446045 242.84616653 -132.32965876 238.65801218 -133 234 C-134.41047295 229.16154217 -136.57951576 225.9194459 -140.75 223.0625 C-148.38254189 218.9005779 -154.14481386 219.78155568 -162 223 Z M-244 370 C-245.76923828 370.17402344 -245.76923828 370.17402344 -247.57421875 370.3515625 C-258.66349961 371.64049695 -269.18115813 378.77413679 -276.58984375 386.80859375 C-285.88746053 399.12002473 -290.23736812 412.56235967 -289 428 C-286.7699456 442.42976375 -279.98591431 455.0642054 -268.36328125 464.03515625 C-255.56834041 472.63204232 -241.98190501 475.55664797 -226.72265625 473.57421875 C-211.68289777 470.60272707 -199.15299537 462.33698519 -190.125 450 C-181.75850592 437.282929 -178.80462746 423.41344244 -181.6875 408.42578125 C-184.24578426 399.41848876 -188.56815489 390.89126262 -195 384 C-195.66 384 -196.32 384 -197 384 C-197.495 382.515 -197.495 382.515 -198 381 C-208.7839527 372.42456898 -220.70918301 368.81051992 -234.25 368.875 C-235.07757813 368.87113281 -235.90515625 368.86726563 -236.7578125 368.86328125 C-240.69309689 368.47758929 -240.69309689 368.47758929 -244 370 Z " fill="#E0B451" transform="translate(701,411)"/>
<path d="M0 0 C9.04521323 7.90399474 17.08625224 16.13639082 22.546875 26.921875 C24.41907295 29.28619179 24.41907295 29.28619179 27.75097656 29.25244141 C34.15807434 29.07957399 40.35866936 27.41304611 46.578125 25.984375 C47.94545633 25.67691466 49.3129629 25.37023272 50.68063354 25.06428528 C54.2706387 24.25912509 57.85828933 23.44393079 61.44549561 22.62640381 C65.05352275 21.80577069 68.66350843 20.99385901 72.2734375 20.18164062 C76.35682809 19.26273427 80.43986902 18.34245156 84.52151489 17.41581726 C92.83782943 15.52903326 101.16546909 13.70946181 109.5078125 11.94140625 C110.89922218 14.72422561 110.15916841 16.14950301 109.43359375 19.15625 C109.1802124 20.22673584 108.92683105 21.29722168 108.66577148 22.40014648 C108.24726929 24.12213257 108.24726929 24.12213257 107.8203125 25.87890625 C105.42806624 35.79358746 105.42806624 35.79358746 103.390625 45.78515625 C103.22780029 46.65277588 103.06497559 47.52039551 102.8972168 48.41430664 C102.60283494 50.01980898 102.32479792 51.6284217 102.06567383 53.23999023 C101.07633552 58.52499854 101.07633552 58.52499854 98.30204773 60.55699158 C95.41691415 61.98644219 92.76879658 62.84547026 89.64770508 63.62719727 C88.4933345 63.92082657 87.33896393 64.21445587 86.14961243 64.51698303 C84.91301376 64.82333176 83.6764151 65.12968048 82.40234375 65.4453125 C80.45381893 65.94017998 78.50529597 66.43505493 76.55688763 66.93038082 C73.14639452 67.79499045 69.73321047 68.64884892 66.3203125 69.50390625 C62.23608053 70.5281102 58.15247374 71.55458805 54.07145691 72.59153748 C51.5323743 73.23593466 48.99163772 73.87385507 46.44917297 74.504776 C45.30425888 74.79525314 44.15934479 75.08573029 42.97973633 75.38500977 C41.96889481 75.63799332 40.95805328 75.89097687 39.9165802 76.15162659 C37.35861647 76.78953058 37.35861647 76.78953058 35.5078125 78.94140625 C34.97051481 81.8847348 34.52551834 84.79125374 34.1328125 87.75390625 C30.24346159 114.16536997 17.31531027 136.08346693 -3.72265625 152.55078125 C-29.03580146 170.78882376 -58.84022048 177.48968305 -89.671875 172.76171875 C-116.1724706 167.07140681 -141.63220478 151.63834181 -156.65234375 128.6328125 C-158.04534408 126.39241402 -159.39118225 124.13317378 -160.73046875 121.859375 C-162.38666304 119.00021757 -162.38666304 119.00021757 -164.16015625 116.7421875 C-168.05244258 111.48018164 -169.41573042 102.74082925 -170.0546875 96.31640625 C-170.1990625 95.20265625 -170.3434375 94.08890625 -170.4921875 92.94140625 C-171.1521875 92.61140625 -171.8121875 92.28140625 -172.4921875 91.94140625 C-173.33119711 59.10708785 -173.33119711 59.10708785 -168.4921875 44.94140625 C-168.15316406 43.91144531 -167.81414062 42.88148438 -167.46484375 41.8203125 C-158.08221302 16.67753334 -137.52035172 -3.68164515 -113.4921875 -15.05859375 C-107.94565932 -17.43548882 -102.26277444 -19.31040365 -96.4921875 -21.05859375 C-95.42226563 -21.40019531 -94.35234375 -21.74179687 -93.25 -22.09375 C-61.47622243 -30.61165795 -24.95627466 -20.61435227 0 0 Z M-124.38671875 37.10546875 C-134.54867167 50.79299718 -138.79644231 66.93941889 -136.9296875 83.81640625 C-134.84072926 96.23948238 -130.13400811 106.67660781 -121.4921875 115.94140625 C-120.82574219 116.7096875 -120.15929687 117.47796875 -119.47265625 118.26953125 C-106.70960223 132.19286291 -87.89471959 138.46781699 -69.3671875 139.31640625 C-50.35642651 138.82404122 -32.07904158 131.22633024 -18.4921875 117.94140625 C-6.54841872 105.35305312 0.06859643 90.90092828 -0.07250977 73.49267578 C-0.67576599 55.98466717 -8.29288576 42.1834376 -20.4921875 29.94140625 C-21.09417969 29.31621094 -21.69617188 28.69101562 -22.31640625 28.046875 C-36.25030627 14.65703182 -54.80066657 10.2806163 -73.54882812 10.47045898 C-93.70619751 11.13427173 -111.3543074 22.11242915 -124.38671875 37.10546875 Z " fill="#E0B451" transform="translate(384.4921875,619.05859375)"/>
<path d="M0 0 C1.49273438 -0.03867187 1.49273438 -0.03867187 3.015625 -0.078125 C6.18180431 0.30181652 7.52473124 0.98825142 9.75 3.25 C10.39983782 8.26303461 9.80456916 11.2474611 6.75 15.25 C-5.29459256 29.06585617 -24.86127908 34.52838031 -41.5 40.5625 C-43.57652266 41.32120316 -45.65277491 42.08064682 -47.72875977 42.84082031 C-50.79357261 43.96292683 -53.85855765 45.08452926 -56.92457581 46.20333862 C-64.36501073 48.91889476 -71.78172368 51.69121322 -79.1875 54.5 C-102.37458997 63.25 -102.37458997 63.25 -106.25 63.25 C-105.92 64.24 -105.59 65.23 -105.25 66.25 C-105.96655762 66.05043701 -106.68311523 65.85087402 -107.42138672 65.64526367 C-110.74923755 65.18023774 -112.39097161 65.71657115 -115.5078125 66.92578125 C-116.58144043 67.33223877 -117.65506836 67.73869629 -118.76123047 68.1574707 C-119.95377441 68.62113037 -121.14631836 69.08479004 -122.375 69.5625 C-125.08573073 70.59084142 -127.80065807 71.60790353 -130.515625 72.625 C-131.26210297 72.90575882 -132.00858093 73.18651764 -132.77767944 73.4757843 C-143.50374584 77.49441457 -154.32000525 81.26267962 -165.125 85.0625 C-167.33425009 85.8405963 -169.54347856 86.61875399 -171.75268555 87.39697266 C-187.11585217 92.80618469 -202.48562028 98.19667717 -217.86083984 103.5715332 C-218.9796051 103.96277626 -218.9796051 103.96277626 -220.12097168 104.36192322 C-221.58220961 104.87216472 -223.04386984 105.3811987 -224.50598145 105.88893127 C-228.58558228 107.30755614 -232.65261811 108.75574409 -236.71142578 110.23291016 C-237.62461075 110.56176712 -238.53779572 110.89062408 -239.47865295 111.22944641 C-241.25334836 111.86898681 -243.02548892 112.51567317 -244.79466248 113.17033386 C-245.99373985 113.59999199 -245.99373985 113.59999199 -247.21704102 114.03833008 C-247.92425797 114.29665115 -248.63147491 114.55497223 -249.36012268 114.82112122 C-251.25 115.25 -251.25 115.25 -254.25 114.25 C-249.3633829 104.21806254 -244.18936134 94.37514173 -238.81323242 84.59692383 C-235.57631802 78.70337794 -232.4145384 72.77795846 -229.3125 66.8125 C-225.46744247 59.44438484 -221.45824215 52.17620858 -217.375 44.9375 C-216.827229 43.96433838 -216.27945801 42.99117676 -215.71508789 41.98852539 C-214.68950382 40.1805794 -213.65140123 38.37965513 -212.59863281 36.58740234 C-211.4907552 34.66726834 -210.47744597 32.69287443 -209.4921875 30.70703125 C-207.00496876 27.98149016 -206.36554296 27.82912611 -202.88996887 27.2089386 C-201.54137504 26.96693442 -201.54137504 26.96693442 -200.16553688 26.72004128 C-195.04190243 25.89401171 -189.9102364 25.15265287 -184.76831055 24.44995117 C-183.55831894 24.28212631 -182.34832733 24.11430145 -181.10166931 23.94139099 C-177.8026575 23.48444086 -174.50329829 23.03017071 -171.20374656 22.57714629 C-167.70274127 22.09582375 -164.20220753 21.61109447 -160.70161438 21.12678528 C-154.79671115 20.31031455 -148.89150764 19.49604732 -142.98608398 18.68334961 C-134.79620713 17.5562641 -126.60688404 16.4251972 -118.41767097 15.29330039 C-111.92830317 14.39651443 -105.43877603 13.50088234 -98.94921875 12.60546875 C-98.24651147 12.50850252 -97.5438042 12.41153628 -96.81980276 12.31163168 C-82.84982541 10.38419901 -68.87972247 8.45846886 -54.90087891 6.59619141 C-53.99943681 6.47582803 -53.09799471 6.35546465 -52.16923618 6.2314539 C-48.17520303 5.69853979 -44.1807721 5.16920508 -40.18522644 4.64775085 C-38.85499677 4.47141051 -37.52478025 4.29497091 -36.19458008 4.1184082 C-35.07940506 3.97264847 -33.96423004 3.82688873 -32.81526184 3.67671204 C-30.2700345 3.38267863 -30.2700345 3.38267863 -28.25 2.25 C-26.04520664 2.04167307 -23.8356438 1.88254395 -21.625 1.75 C-15.85770624 1.38281002 -15.85770624 1.38281002 -10.125 0.6875 C-6.72347118 0.30345642 -3.41943689 0.08651587 0 0 Z " fill="#E0B451" transform="translate(840.25,589.75)"/>
<path d="M0 0 C1.24487792 2.48975585 1.12420983 4.14483931 1.12304783 6.93130684 C1.12503888 7.98030761 1.12702993 9.02930838 1.12908131 10.11009705 C1.12616847 11.27155586 1.12325563 12.43301466 1.12025452 13.62966919 C1.12110894 14.85644375 1.12196337 16.08321831 1.12284368 17.34716785 C1.12421047 20.76314249 1.12106827 24.17906036 1.11606562 27.59502816 C1.11176037 31.27464566 1.1132076 34.95426131 1.1139679 38.63388062 C1.11449308 45.01267032 1.11134683 51.39144983 1.10573006 57.77023697 C1.09761435 66.99297252 1.09499976 76.21570312 1.09374207 85.43844186 C1.09155166 100.40053305 1.08489187 115.3626188 1.07543945 130.32470703 C1.06626505 144.86181613 1.05918435 159.39892375 1.05493164 173.93603516 C1.05466892 174.83160838 1.05440619 175.72718161 1.05413551 176.64989342 C1.0528305 181.14257352 1.05156679 185.63525362 1.05032361 190.12793374 C1.03995134 227.41862634 1.02233333 264.70931275 1 302 C0.34 301.67 -0.32 301.34 -1 301 C-3.53649332 289.23545795 -3.27648243 277.06635962 -3.22705078 265.09960938 C-3.22648522 263.15638739 -3.22680605 261.21316498 -3.22793579 259.26994324 C-3.22850464 254.04581233 -3.2168269 248.82177511 -3.20278788 243.59766579 C-3.19020173 238.11911125 -3.18910385 232.64055407 -3.18673706 227.1619873 C-3.1805453 216.81041242 -3.16416596 206.45888027 -3.14403808 196.10732412 C-3.12160698 184.31274576 -3.11066759 172.51816524 -3.10064721 160.72357082 C-3.07979746 136.48235694 -3.04466673 112.24118088 -3 88 C-3.33 88 -3.66 88 -4 88 C-4 86.02 -4 84.04 -4 82 C-3.67 82 -3.34 82 -3 82 C-3.00523682 80.75839111 -3.01047363 79.51678223 -3.01586914 78.23754883 C-3.10733196 54.46978751 -3.12820184 30.74624828 -2 7 C-2.66 6.67 -3.32 6.34 -4 6 C-2.68 4.02 -1.36 2.04 0 0 Z " fill="#D0A54A" transform="translate(311,200)"/>
<path d="M0 0 C-1.81039471 0.48706051 -3.62346567 0.96417519 -5.4375 1.4375 C-6.44683594 1.70433594 -7.45617187 1.97117187 -8.49609375 2.24609375 C-15.78601298 3.8146048 -22.99839146 4.16745288 -30.4375 4.125 C-31.26354736 4.12306641 -32.08959473 4.12113281 -32.94067383 4.11914062 C-38.68390957 4.07845254 -44.3004477 3.74748227 -50 3 C-50 2.67 -50 2.34 -50 2 C-47.35448944 1.80613508 -44.70882217 1.61961733 -42.0625 1.4375 C-41.30775391 1.38142578 -40.55300781 1.32535156 -39.77539062 1.26757812 C-37.85254042 1.13823843 -35.92610452 1.06483088 -34 1 C-33.67 1.33 -33.34 1.66 -33 2 C-25.27729043 2.83837348 -17.74851693 1.44100364 -10.19555664 -0.02050781 C-6.44450887 -0.72090924 -3.65208288 -1.11397934 0 0 Z " fill="#C99F47" transform="translate(346,789)"/>
<path d="M0 0 C-4.05615216 2.70410144 -8.35912525 4.07065004 -12.9375 5.6875 C-14.2977832 6.18733398 -14.2977832 6.18733398 -15.68554688 6.69726562 C-16.56146484 7.00728516 -17.43738281 7.31730469 -18.33984375 7.63671875 C-19.13769287 7.92248779 -19.93554199 8.20825684 -20.75756836 8.50268555 C-23 9 -23 9 -27 8 C-23.37 7.01 -19.74 6.02 -16 5 C-16 4.34 -16 3.68 -16 3 C-10.28264895 0.54970669 -6.20970773 -0.33266291 0 0 Z " fill="#D5A94C" transform="translate(632,689)"/>
<path d="M0 0 C-4.27813239 2.85208826 -8.77763571 3.5541884 -13.75 4.6875 C-15.21566406 5.04424805 -15.21566406 5.04424805 -16.7109375 5.40820312 C-22.2051293 6.67068251 -26.48335021 7.27129499 -32 6 C-31.67 5.34 -31.34 4.68 -31 4 C-29.30423828 4.061875 -29.30423828 4.061875 -27.57421875 4.125 C-22.78902599 4.125 -18.43729844 3.14747723 -13.8125 2 C-4.45994497 -0.2860085 -4.45994497 -0.2860085 0 0 Z " fill="#D1A74B" transform="translate(440,644)"/>
<path d="M0 0 C2.08485081 0.09643583 4.1692457 0.212629 6.25 0.375 C6.25 0.705 6.25 1.035 6.25 1.375 C5.51394531 1.43816406 4.77789063 1.50132812 4.01953125 1.56640625 C-1.76358034 2.15850243 -1.76358034 2.15850243 -6.59375 5.06640625 C-8.11619086 7.17856553 -8.11619086 7.17856553 -9.75 10.375 C-10.75478546 7.20923761 -10.77631542 6.45102233 -9.625 3.125 C-6.07783419 -0.26794121 -4.7849365 -0.0104247 0 0 Z " fill="#E8BC55" transform="translate(639.75,617.625)"/>
<path d="M0 0 C-1.93232821 0.86580287 -3.87107194 1.71729941 -5.8125 2.5625 C-6.89144531 3.03816406 -7.97039062 3.51382813 -9.08203125 4.00390625 C-12 5 -12 5 -15 4 C-13.68 3.67 -12.36 3.34 -11 3 C-11 2.34 -11 1.68 -11 1 C-3.375 -1.125 -3.375 -1.125 0 0 Z " fill="#E9BE56" transform="translate(285,602)"/>
<path d="M0 0 C1.125 1.6875 1.125 1.6875 2 4 C1.25 6.25 1.25 6.25 0 9 C-0.74077776 11.65198439 -1.36407564 14.32003304 -2 17 C-2.33 17 -2.66 17 -3 17 C-2.54775239 11.08507728 -1.8417395 5.64800112 0 0 Z " fill="#F0C257" transform="translate(512,633)"/>
<path d="M0 0 C0.75 1.6875 0.75 1.6875 1 4 C-1.13381449 7.2769294 -2.25018012 8.75006004 -6 10 C-4.6302836 6.00499382 -2.74277578 3.19990508 0 0 Z " fill="#D9AE4E" transform="translate(233,634)"/>
<path d="M0 0 C-2.3129482 2.3129482 -3.47904875 2.49580975 -6.625 3.125 C-7.44226563 3.29257812 -8.25953125 3.46015625 -9.1015625 3.6328125 C-10.04128906 3.81457031 -10.04128906 3.81457031 -11 4 C-11 3.34 -11 2.68 -11 2 C-7.17010894 0.19769832 -4.21878192 -0.19622241 0 0 Z " fill="#D7AC4D" transform="translate(691,668)"/>
<path d="M0 0 C0.33 1.32 0.66 2.64 1 4 C-1.97 6.475 -1.97 6.475 -5 9 C-5 4.61031544 -2.87194899 3.23094261 0 0 Z " fill="#D8AC4E" transform="translate(547,583)"/>
<path d="M0 0 C2.9375 1.625 2.9375 1.625 6 4 C6.875 7.25 6.875 7.25 7 10 C4.4000702 7.48972295 2.00908773 5.0136316 0 2 C0 1.34 0 0.68 0 0 Z " fill="#E7BB55" transform="translate(398,636)"/>
<path d="M0 0 C0.33 1.32 0.66 2.64 1 4 C-1.31 5.65 -3.62 7.3 -6 9 C-4.47291037 5.56404834 -2.40072955 2.88087546 0 0 Z " fill="#D6AA4E" transform="translate(582,539)"/>
<path d="M0 0 C0 4.38968456 -2.12805101 5.76905739 -5 9 C-5.33 7.68 -5.66 6.36 -6 5 C-4.02 3.35 -2.04 1.7 0 0 Z " fill="#E8BC55" transform="translate(598,521)"/>
<path d="M0 0 C0.33 0.66 0.66 1.32 1 2 C-1.34375 8.5625 -1.34375 8.5625 -5 11 C-3.77472971 6.94718288 -2.30119506 3.55639236 0 0 Z " fill="#EEC156" transform="translate(613,656)"/>
<path d="M0 0 C0.66 0.33 1.32 0.66 2 1 C0.7260411 3.03833424 -0.61061923 5.03852126 -2 7 C-2.66 7 -3.32 7 -4 7 C-4.33 7.66 -4.66 8.32 -5 9 C-4.42647107 5.12867972 -2.51295648 2.91827204 0 0 Z " fill="#EABC56" transform="translate(536,633)"/>
<path d="M0 0 C2.31 0.33 4.62 0.66 7 1 C5.02 1.99 5.02 1.99 3 3 C3 2.34 3 1.68 3 1 C2.01 0.67 1.02 0.34 0 0 Z " fill="#E1B454" transform="translate(472,781)"/>
<path d="M0 0 C0.33 0 0.66 0 1 0 C1 2.64 1 5.28 1 8 C0.67 8 0.34 8 0 8 C0 5.36 0 2.72 0 0 Z " fill="#CEA54D" transform="translate(210,696)"/>
<path d="M0 0 C0.99 0.33 1.98 0.66 3 1 C2.01 1.99 1.02 2.98 0 4 C0 2.68 0 1.36 0 0 Z " fill="#E3B555" transform="translate(632,472)"/>
<path d="M0 0 C0.66 0.66 1.32 1.32 2 2 C1.67 2.99 1.34 3.98 1 5 C0.67 3.35 0.34 1.7 0 0 Z " fill="#E1B455" transform="translate(376,667)"/>
<path d="M0 0 C1.65 0 3.3 0 5 0 C5 0.33 5 0.66 5 1 C3.35 1 1.7 1 0 1 C0 0.67 0 0.34 0 0 Z " fill="#D2A64C" transform="translate(805,592)"/>
<path d="M0 0 C0.66 0.33 1.32 0.66 2 1 C1.01 1 0.02 1 -1 1 C-0.67 0.67 -0.34 0.34 0 0 Z " fill="#E1B556" transform="translate(436,789)"/>
<path d="M0 0 C4 1 4 1 4 1 Z " fill="#E0B354" transform="translate(465,781)"/>
<path d="M0 0 C0.99 0.33 1.98 0.66 3 1 C2.01 1 1.02 1 0 1 C0 0.67 0 0.34 0 0 Z " fill="#CAA149" transform="translate(224,747)"/>
<path d="M0 0 C1 4 1 4 1 4 Z " fill="#CFA64E" transform="translate(210,683)"/>
<path d="M0 0 C0.66 0.66 1.32 1.32 2 2 C1.01 2.495 1.01 2.495 0 3 C0 2.01 0 1.02 0 0 Z " fill="#DFB355" transform="translate(370,658)"/>
<path d="M0 0 C0 3 0 3 0 3 Z " fill="#D2A64B" transform="translate(546,545)"/>
<path d="M0 0 C1.485 0.99 1.485 0.99 3 2 C2.01 2 1.02 2 0 2 C0 1.34 0 0.68 0 0 Z " fill="#E1B455" transform="translate(497,284)"/>
<path d="M0 0 C0.66 0.33 1.32 0.66 2 1 C1.01 1 0.02 1 -1 1 C-0.67 0.67 -0.34 0.34 0 0 Z " fill="#CAA149" transform="translate(308,200)"/>
<path d="M0 0 C0.66 0 1.32 0 2 0 C1.67 0.66 1.34 1.32 1 2 C0.67 1.34 0.34 0.68 0 0 Z " fill="#E1B354" transform="translate(505,797)"/>
<path d="M0 0 C3 1 3 1 3 1 Z " fill="#D8AB4F" transform="translate(340,791)"/>
<path d="M0 0 C3 1 3 1 3 1 Z " fill="#CEA148" transform="translate(283,790)"/>
<path d="M0 0 C0.66 0 1.32 0 2 0 C1.67 0.66 1.34 1.32 1 2 C0.67 1.34 0.34 0.68 0 0 Z " fill="#CBA24B" transform="translate(233,757)"/>
<path d="M0 0 C3 1 3 1 3 1 Z " fill="#E2B658" transform="translate(424,752)"/>
<path d="M0 0 C3 1 3 1 3 1 Z " fill="#E0B453" transform="translate(336,752)"/>
<path d="M0 0 C3 1 3 1 3 1 Z " fill="#DEB253" transform="translate(352,744)"/>
<path d="" fill="#CDA34B" transform="translate(0,0)"/>
<path d="M0 0 C3 1 3 1 3 1 Z " fill="#E3B655" transform="translate(433,693)"/>
<path d="" fill="#E1B455" transform="translate(0,0)"/>
<path d="M0 0 C3 1 3 1 3 1 Z " fill="#D4A94E" transform="translate(709,663)"/>
<path d="M0 0 C3 1 3 1 3 1 Z " fill="#E0B455" transform="translate(589,663)"/>
<path d="" fill="#E2B655" transform="translate(0,0)"/>
<path d="M0 0 C3 1 3 1 3 1 Z " fill="#E0B454" transform="translate(336,635)"/>
<path d="M0 0 C3 1 3 1 3 1 Z " fill="#CDA34C" transform="translate(797,631)"/>
<path d="M0 0 C3 1 3 1 3 1 Z " fill="#E0B354" transform="translate(308,631)"/>
<path d="M0 0 C0.33 0.66 0.66 1.32 1 2 C0.34 1.67 -0.32 1.34 -1 1 C-0.67 0.67 -0.34 0.34 0 0 Z " fill="#DEB252" transform="translate(529,602)"/>
<path d="M0 0 C0.99 0.495 0.99 0.495 2 1 C1.01 1.495 1.01 1.495 0 2 C0 1.34 0 0.68 0 0 Z " fill="#D8AB50" transform="translate(661,520)"/>
<path d="M0 0 C0.66 0.66 1.32 1.32 2 2 C1.34 2 0.68 2 0 2 C0 1.34 0 0.68 0 0 Z " fill="#E0B155" transform="translate(598,486)"/>
<path d="M0 0 C0.99 0.495 0.99 0.495 2 1 C1.01 1.495 1.01 1.495 0 2 C0 1.34 0 0.68 0 0 Z " fill="#E0B354" transform="translate(640,464)"/>
<path d="M0 0 C3 1 3 1 3 1 Z " fill="#E0B355" transform="translate(429,448)"/>
<path d="" fill="#D9AE51" transform="translate(0,0)"/>
<path d="" fill="#D4A94E" transform="translate(0,0)"/>
<path d="M0 0 C2 1 2 1 2 1 Z " fill="#C49944" transform="translate(484,919)"/>
<path d="M0 0 C2 1 2 1 2 1 Z " fill="#C49945" transform="translate(488,918)"/>
<path d="" fill="#C89E49" transform="translate(0,0)"/>
<path d="" fill="#CDA34B" transform="translate(0,0)"/>
<path d="M0 0 C2 1 2 1 2 1 Z " fill="#DAAE52" transform="translate(496,872)"/>
<path d="" fill="#DEB053" transform="translate(0,0)"/>
<path d="" fill="#CFA44A" transform="translate(0,0)"/>
<path d="" fill="#DFB255" transform="translate(0,0)"/>
<path d="M0 0 C2 1 2 1 2 1 Z " fill="#CEA44B" transform="translate(281,789)"/>
<path d="M0 0 C2 1 2 1 2 1 Z " fill="#DEB355" transform="translate(480,783)"/>
<path d="M0 0 C2 1 2 1 2 1 Z " fill="#C9A049" transform="translate(259,779)"/>
<path d="" fill="#DCAF54" transform="translate(0,0)"/>
<path d="M0 0 C2 1 2 1 2 1 Z " fill="#C89E49" transform="translate(224,750)"/>
<path d="M0 0 C2 1 2 1 2 1 Z " fill="#E0B656" transform="translate(403,749)"/>
<path d="M0 0 C2 1 2 1 2 1 Z " fill="#DBB054" transform="translate(276,744)"/>
<path d="" fill="#E0B555" transform="translate(0,0)"/>
<path d="" fill="#E1B555" transform="translate(0,0)"/>
<path d="" fill="#E2B756" transform="translate(0,0)"/>
<path d="" fill="#D3A64D" transform="translate(0,0)"/>
<path d="M0 0 C2 1 2 1 2 1 Z " fill="#D4A74D" transform="translate(601,701)"/>
<path d="M0 0 C2 1 2 1 2 1 Z " fill="#DBAF52" transform="translate(584,699)"/>
<path d="" fill="#E3B755" transform="translate(0,0)"/>
<path d="M0 0 C2 1 2 1 2 1 Z " fill="#D7AA4D" transform="translate(626,692)"/>
<path d="" fill="#D0A74C" transform="translate(0,0)"/>
<path d="M0 0 C2 1 2 1 2 1 Z " fill="#D4A84E" transform="translate(644,686)"/>
<path d="M0 0 C2 1 2 1 2 1 Z " fill="#E2B553" transform="translate(465,685)"/>
<path d="M0 0 C2 1 2 1 2 1 Z " fill="#D4AA4D" transform="translate(667,678)"/>
<path d="M0 0 C2 1 2 1 2 1 Z " fill="#E2B456" transform="translate(379,678)"/>
<path d="M0 0 C2 1 2 1 2 1 Z " fill="#D8AE51" transform="translate(686,671)"/>
<path d="M0 0 C2 1 2 1 2 1 Z " fill="#E1B355" transform="translate(253,671)"/>
<path d="M0 0 C2 1 2 1 2 1 Z " fill="#E2B755" transform="translate(548,665)"/>
<path d="M0 0 C2 1 2 1 2 1 Z " fill="#E4B657" transform="translate(554,664)"/>
<path d="M0 0 C2 1 2 1 2 1 Z " fill="#DFB356" transform="translate(368,661)"/>
<path d="M0 0 C2 1 2 1 2 1 Z " fill="#CDA24C" transform="translate(742,655)"/>
<path d="M0 0 C2 1 2 1 2 1 Z " fill="#D2A74F" transform="translate(737,653)"/>
<path d="M0 0 C2 1 2 1 2 1 Z " fill="#D1A74E" transform="translate(742,651)"/>
<path d="M0 0 C2 1 2 1 2 1 Z " fill="#CFA64C" transform="translate(756,646)"/>
<path d="M0 0 C2 1 2 1 2 1 Z " fill="#E1B554" transform="translate(431,643)"/>
<path d="M0 0 C2 1 2 1 2 1 Z " fill="#D3A94B" transform="translate(775,639)"/>
<path d="M0 0 C2 1 2 1 2 1 Z " fill="#E6B856" transform="translate(561,637)"/>
<path d="M0 0 C2 1 2 1 2 1 Z " fill="#CEA449" transform="translate(786,635)"/>
<path d="M0 0 C2 1 2 1 2 1 Z " fill="#DFB254" transform="translate(291,635)"/>
<path d="M0 0 C2 1 2 1 2 1 Z " fill="#DEB153" transform="translate(480,632)"/>
<path d="M0 0 C2 1 2 1 2 1 Z " fill="#E0B454" transform="translate(322,631)"/>
<path d="" fill="#CBA14B" transform="translate(0,0)"/>
<path d="M0 0 C2 1 2 1 2 1 Z " fill="#DCAF52" transform="translate(356,601)"/>
<path d="M0 0 C2 1 2 1 2 1 Z " fill="#D9AE50" transform="translate(746,600)"/>
<path d="" fill="#D2A74D" transform="translate(0,0)"/>
<path d="M0 0 C2 1 2 1 2 1 Z " fill="#D7AB51" transform="translate(323,593)"/>
<path d="M0 0 C2 1 2 1 2 1 Z " fill="#9E7934" transform="translate(213,568)"/>
<path d="" fill="#CEA24A" transform="translate(0,0)"/>
<path d="" fill="#DAAD51" transform="translate(0,0)"/>
<path d="M0 0 C2 1 2 1 2 1 Z " fill="#E1B255" transform="translate(568,552)"/>
<path d="M0 0 C2 1 2 1 2 1 Z " fill="#9E7935" transform="translate(824,544)"/>
<path d="" fill="#9C7934" transform="translate(0,0)"/>
<path d="" fill="#D8AC4F" transform="translate(0,0)"/>
<path d="" fill="#D6A84F" transform="translate(0,0)"/>
<path d="M0 0 C2 1 2 1 2 1 Z " fill="#E1B554" transform="translate(558,507)"/>
<path d="M0 0 C2 1 2 1 2 1 Z " fill="#E1B454" transform="translate(550,507)"/>
<path d="M0 0 C2 1 2 1 2 1 Z " fill="#DFB353" transform="translate(542,507)"/>
<path d="M0 0 C2 1 2 1 2 1 Z " fill="#E0B352" transform="translate(526,507)"/>
<path d="M0 0 C2 1 2 1 2 1 Z " fill="#E0B252" transform="translate(502,507)"/>
<path d="M0 0 C2 1 2 1 2 1 Z " fill="#E0B353" transform="translate(494,507)"/>
<path d="M0 0 C2 1 2 1 2 1 Z " fill="#DFB254" transform="translate(486,507)"/>
<path d="M0 0 C2 1 2 1 2 1 Z " fill="#DFB253" transform="translate(462,507)"/>
<path d="M0 0 C2 1 2 1 2 1 Z " fill="#DFB252" transform="translate(438,507)"/>
<path d="M0 0 C2 1 2 1 2 1 Z " fill="#DFB352" transform="translate(430,507)"/>
<path d="M0 0 C2 1 2 1 2 1 Z " fill="#DFB252" transform="translate(414,507)"/>
<path d="M0 0 C2 1 2 1 2 1 Z " fill="#DFB252" transform="translate(406,507)"/>
<path d="M0 0 C2 1 2 1 2 1 Z " fill="#DEB052" transform="translate(366,507)"/>
<path d="M0 0 C2 1 2 1 2 1 Z " fill="#E4B757" transform="translate(624,483)"/>
<path d="" fill="#D4A94E" transform="translate(0,0)"/>
<path d="" fill="#E1B454" transform="translate(0,0)"/>
<path d="" fill="#D8AC4F" transform="translate(0,0)"/>
<path d="" fill="#D7AB4F" transform="translate(0,0)"/>
<path d="M0 0 C2 1 2 1 2 1 Z " fill="#E1B554" transform="translate(656,445)"/>
<path d="" fill="#D7AC4F" transform="translate(0,0)"/>
<path d="" fill="#D7AB4F" transform="translate(0,0)"/>
<path d="M0 0 C2 1 2 1 2 1 Z " fill="#E0B455" transform="translate(465,432)"/>
<path d="M0 0 C2 1 2 1 2 1 Z " fill="#E1B555" transform="translate(675,398)"/>
<path d="" fill="#D8AC51" transform="translate(0,0)"/>
<path d="" fill="#E2B556" transform="translate(0,0)"/>
<path d="M0 0 C2 1 2 1 2 1 Z " fill="#E4B956" transform="translate(592,343)"/>
<path d="M0 0 C2 1 2 1 2 1 Z " fill="#E1B453" transform="translate(582,335)"/>
<path d="" fill="#E4B653" transform="translate(0,0)"/>
<path d="" fill="#DAAE52" transform="translate(0,0)"/>
<path d="" fill="#E1B655" transform="translate(0,0)"/>
<path d="" fill="#D9AC50" transform="translate(0,0)"/>
<path d="M0 0 C2 1 2 1 2 1 Z " fill="#E0B453" transform="translate(524,300)"/>
<path d="" fill="#E1B454" transform="translate(0,0)"/>
<path d="M0 0 C2 1 2 1 2 1 Z " fill="#E1B254" transform="translate(484,276)"/>
<path d="" fill="#D7AC50" transform="translate(0,0)"/>
<path d="" fill="#D7AD51" transform="translate(0,0)"/>
<path d="M0 0 C2 1 2 1 2 1 Z " fill="#E2B754" transform="translate(472,269)"/>
<path d="M0 0 C2 1 2 1 2 1 Z " fill="#E0B455" transform="translate(461,263)"/>
<path d="" fill="#D7AC50" transform="translate(0,0)"/>
<path d="" fill="#D5AA4E" transform="translate(0,0)"/>
<path d="" fill="#D2A84D" transform="translate(0,0)"/>
<path d="" fill="#D2A64D" transform="translate(0,0)"/>
<path d="" fill="#271B04" transform="translate(0,0)"/>
<path d="" fill="#2B1D05" transform="translate(0,0)"/>
<path d="" fill="#533B13" transform="translate(0,0)"/>
<path d="" fill="#1C1401" transform="translate(0,0)"/>
<path d="" fill="#1F1501" transform="translate(0,0)"/>
<path d="" fill="#241803" transform="translate(0,0)"/>
<path d="" fill="#42300D" transform="translate(0,0)"/>
<path d="" fill="#211702" transform="translate(0,0)"/>
<path d="" fill="#302206" transform="translate(0,0)"/>
<path d="" fill="#1F1601" transform="translate(0,0)"/>
<path d="" fill="#241902" transform="translate(0,0)"/>
<path d="" fill="#332408" transform="translate(0,0)"/>
<path d="" fill="#201602" transform="translate(0,0)"/>
<path d="" fill="#221801" transform="translate(0,0)"/>
<path d="" fill="#251902" transform="translate(0,0)"/>
<path d="" fill="#34250A" transform="translate(0,0)"/>
<path d="" fill="#4D3811" transform="translate(0,0)"/>
<path d="" fill="#201501" transform="translate(0,0)"/>
<path d="" fill="#2A1C05" transform="translate(0,0)"/>
<path d="" fill="#201702" transform="translate(0,0)"/>
<path d="" fill="#201602" transform="translate(0,0)"/>
<path d="" fill="#221603" transform="translate(0,0)"/>
<path d="" fill="#251903" transform="translate(0,0)"/>
<path d="" fill="#251B02" transform="translate(0,0)"/>
<path d="" fill="#291C04" transform="translate(0,0)"/>
<path d="" fill="#342208" transform="translate(0,0)"/>
<path d="" fill="#342508" transform="translate(0,0)"/>
<path d="" fill="#352609" transform="translate(0,0)"/>
<path d="" fill="#362709" transform="translate(0,0)"/>
<path d="" fill="#584013" transform="translate(0,0)"/>
<path d="" fill="#674E1C" transform="translate(0,0)"/>
<path d="" fill="#201501" transform="translate(0,0)"/>
<path d="" fill="#211603" transform="translate(0,0)"/>
<path d="" fill="#221702" transform="translate(0,0)"/>
<path d="" fill="#221802" transform="translate(0,0)"/>
<path d="" fill="#231902" transform="translate(0,0)"/>
<path d="" fill="#261904" transform="translate(0,0)"/>
<path d="" fill="#271A03" transform="translate(0,0)"/>
<path d="" fill="#291D04" transform="translate(0,0)"/>
<path d="" fill="#2E1F05" transform="translate(0,0)"/>
<path d="" fill="#322208" transform="translate(0,0)"/>
<path d="" fill="#3A2A09" transform="translate(0,0)"/>
<path d="" fill="#775922" transform="translate(0,0)"/>
<path d="" fill="#40300D" transform="translate(0,0)"/>
<path d="" fill="#221703" transform="translate(0,0)"/>
<path d="" fill="#271A03" transform="translate(0,0)"/>
<path d="" fill="#2B1F06" transform="translate(0,0)"/>
<path d="" fill="#C39B45" transform="translate(0,0)"/>
<path d="" fill="#C69A47" transform="translate(0,0)"/>
<path d="" fill="#C79E46" transform="translate(0,0)"/>
<path d="" fill="#C79F49" transform="translate(0,0)"/>
<path d="" fill="#C99E44" transform="translate(0,0)"/>
<path d="" fill="#C69D49" transform="translate(0,0)"/>
<path d="" fill="#C8A04A" transform="translate(0,0)"/>
<path d="" fill="#3E2D0D" transform="translate(0,0)"/>
<path d="" fill="#C9A14B" transform="translate(0,0)"/>
<path d="" fill="#322408" transform="translate(0,0)"/>
<path d="" fill="#C79E48" transform="translate(0,0)"/>
<path d="" fill="#C89C46" transform="translate(0,0)"/>
<path d="" fill="#C59B42" transform="translate(0,0)"/>
<path d="" fill="#261C05" transform="translate(0,0)"/>
<path d="" fill="#D9AD50" transform="translate(0,0)"/>
<path d="" fill="#DCAF52" transform="translate(0,0)"/>
<path d="" fill="#CCA148" transform="translate(0,0)"/>
<path d="" fill="#DDB054" transform="translate(0,0)"/>
<path d="" fill="#D8AD51" transform="translate(0,0)"/>
<path d="" fill="#221703" transform="translate(0,0)"/>
<path d="" fill="#231703" transform="translate(0,0)"/>
<path d="" fill="#332607" transform="translate(0,0)"/>
<path d="" fill="#44330F" transform="translate(0,0)"/>
<path d="" fill="#44300F" transform="translate(0,0)"/>
<path d="" fill="#281C04" transform="translate(0,0)"/>
<path d="" fill="#281B05" transform="translate(0,0)"/>
<path d="" fill="#CDA14B" transform="translate(0,0)"/>
<path d="" fill="#241803" transform="translate(0,0)"/>
<path d="" fill="#C89E48" transform="translate(0,0)"/>
<path d="" fill="#C89E47" transform="translate(0,0)"/>
<path d="" fill="#CA9E48" transform="translate(0,0)"/>
<path d="" fill="#CEA64C" transform="translate(0,0)"/>
<path d="" fill="#D1A64D" transform="translate(0,0)"/>
<path d="" fill="#D6AA4E" transform="translate(0,0)"/>
<path d="" fill="#DDB051" transform="translate(0,0)"/>
<path d="" fill="#DDB051" transform="translate(0,0)"/>
<path d="" fill="#DBB052" transform="translate(0,0)"/>
<path d="" fill="#CDA14B" transform="translate(0,0)"/>
<path d="" fill="#DEB455" transform="translate(0,0)"/>
<path d="" fill="#DAAF51" transform="translate(0,0)"/>
<path d="" fill="#D4A94D" transform="translate(0,0)"/>
<path d="" fill="#664D1C" transform="translate(0,0)"/>
<path d="" fill="#DEB052" transform="translate(0,0)"/>
<path d="" fill="#DCB351" transform="translate(0,0)"/>
<path d="" fill="#584115" transform="translate(0,0)"/>
<path d="" fill="#AF8A3B" transform="translate(0,0)"/>
<path d="" fill="#312208" transform="translate(0,0)"/>
<path d="" fill="#DEB253" transform="translate(0,0)"/>
<path d="" fill="#D2A64B" transform="translate(0,0)"/>
<path d="" fill="#DEB155" transform="translate(0,0)"/>
<path d="" fill="#DDAF55" transform="translate(0,0)"/>
<path d="" fill="#281C03" transform="translate(0,0)"/>
<path d="" fill="#E0B354" transform="translate(0,0)"/>
<path d="" fill="#DDB153" transform="translate(0,0)"/>
<path d="" fill="#E0B354" transform="translate(0,0)"/>
<path d="" fill="#D5A94F" transform="translate(0,0)"/>
<path d="" fill="#D6AB4F" transform="translate(0,0)"/>
<path d="" fill="#D0A54B" transform="translate(0,0)"/>
<path d="" fill="#DCB353" transform="translate(0,0)"/>
<path d="" fill="#DEB252" transform="translate(0,0)"/>
<path d="" fill="#DDB154" transform="translate(0,0)"/>
<path d="" fill="#DEB353" transform="translate(0,0)"/>
<path d="" fill="#DEB152" transform="translate(0,0)"/>
<path d="" fill="#DFB255" transform="translate(0,0)"/>
<path d="" fill="#E0B554" transform="translate(0,0)"/>
<path d="" fill="#D4A84E" transform="translate(0,0)"/>
<path d="" fill="#E0B354" transform="translate(0,0)"/>
<path d="" fill="#CAA34A" transform="translate(0,0)"/>
<path d="" fill="#DFB354" transform="translate(0,0)"/>
<path d="" fill="#E1B555" transform="translate(0,0)"/>
<path d="" fill="#CBA048" transform="translate(0,0)"/>
<path d="" fill="#E0B656" transform="translate(0,0)"/>
<path d="" fill="#E2B454" transform="translate(0,0)"/>
<path d="" fill="#DAAE53" transform="translate(0,0)"/>
<path d="" fill="#D6AB4E" transform="translate(0,0)"/>
<path d="" fill="#D9AC4F" transform="translate(0,0)"/>
<path d="" fill="#D9AF4F" transform="translate(0,0)"/>
<path d="" fill="#E1B958" transform="translate(0,0)"/>
<path d="" fill="#D5AC4E" transform="translate(0,0)"/>
<path d="" fill="#E3B656" transform="translate(0,0)"/>
<path d="" fill="#D8AE50" transform="translate(0,0)"/>
<path d="" fill="#DCB253" transform="translate(0,0)"/>
<path d="" fill="#C79F48" transform="translate(0,0)"/>
<path d="" fill="#DEB555" transform="translate(0,0)"/>
<path d="" fill="#E0B357" transform="translate(0,0)"/>
<path d="" fill="#D9AC50" transform="translate(0,0)"/>
<path d="" fill="#39280A" transform="translate(0,0)"/>
<path d="" fill="#DFB758" transform="translate(0,0)"/>
<path d="" fill="#CBA34C" transform="translate(0,0)"/>
<path d="" fill="#E4B754" transform="translate(0,0)"/>
<path d="" fill="#E4B656" transform="translate(0,0)"/>
<path d="" fill="#402E0C" transform="translate(0,0)"/>
<path d="" fill="#E5B857" transform="translate(0,0)"/>
<path d="" fill="#DDB153" transform="translate(0,0)"/>
<path d="" fill="#DDB453" transform="translate(0,0)"/>
<path d="" fill="#CBA24C" transform="translate(0,0)"/>
<path d="" fill="#DFB354" transform="translate(0,0)"/>
<path d="" fill="#CBA24B" transform="translate(0,0)"/>
<path d="" fill="#DDB151" transform="translate(0,0)"/>
<path d="" fill="#CAA048" transform="translate(0,0)"/>
<path d="" fill="#E0B656" transform="translate(0,0)"/>
<path d="" fill="#DCB053" transform="translate(0,0)"/>
<path d="" fill="#DDB04F" transform="translate(0,0)"/>
<path d="" fill="#E2B456" transform="translate(0,0)"/>
<path d="" fill="#CCA148" transform="translate(0,0)"/>
<path d="" fill="#DFB152" transform="translate(0,0)"/>
<path d="" fill="#D9AD4F" transform="translate(0,0)"/>
<path d="" fill="#E1B554" transform="translate(0,0)"/>
<path d="" fill="#E2B556" transform="translate(0,0)"/>
<path d="" fill="#E1B355" transform="translate(0,0)"/>
<path d="" fill="#DAAE51" transform="translate(0,0)"/>
<path d="" fill="#DFB654" transform="translate(0,0)"/>
<path d="" fill="#E0B556" transform="translate(0,0)"/>
<path d="" fill="#CDA34C" transform="translate(0,0)"/>
<path d="" fill="#DEAF53" transform="translate(0,0)"/>
<path d="" fill="#E1B556" transform="translate(0,0)"/>
<path d="" fill="#DCAF51" transform="translate(0,0)"/>
<path d="" fill="#E1B554" transform="translate(0,0)"/>
<path d="" fill="#E1B655" transform="translate(0,0)"/>
<path d="" fill="#E2B553" transform="translate(0,0)"/>
<path d="" fill="#DEB152" transform="translate(0,0)"/>
<path d="" fill="#CCA14B" transform="translate(0,0)"/>
<path d="" fill="#493512" transform="translate(0,0)"/>
<path d="" fill="#3A2A0B" transform="translate(0,0)"/>
<path d="" fill="#E2B855" transform="translate(0,0)"/>
<path d="" fill="#CCA34D" transform="translate(0,0)"/>
<path d="" fill="#E3B757" transform="translate(0,0)"/>
<path d="" fill="#DCB252" transform="translate(0,0)"/>
<path d="" fill="#CAA34C" transform="translate(0,0)"/>
<path d="" fill="#DDB554" transform="translate(0,0)"/>
<path d="" fill="#E2B554" transform="translate(0,0)"/>
<path d="" fill="#DDB153" transform="translate(0,0)"/>
<path d="" fill="#E3B556" transform="translate(0,0)"/>
<path d="" fill="#DEB354" transform="translate(0,0)"/>
<path d="" fill="#CCA34A" transform="translate(0,0)"/>
<path d="" fill="#DAAD51" transform="translate(0,0)"/>
<path d="" fill="#E2B654" transform="translate(0,0)"/>
<path d="" fill="#E3B655" transform="translate(0,0)"/>
<path d="" fill="#E2B656" transform="translate(0,0)"/>
<path d="" fill="#E0B453" transform="translate(0,0)"/>
<path d="" fill="#D6AA4C" transform="translate(0,0)"/>
<path d="" fill="#D9AF51" transform="translate(0,0)"/>
<path d="" fill="#D4A84F" transform="translate(0,0)"/>
<path d="" fill="#DAAE52" transform="translate(0,0)"/>
<path d="" fill="#E5B755" transform="translate(0,0)"/>
<path d="" fill="#E2B456" transform="translate(0,0)"/>
<path d="" fill="#D5AA4F" transform="translate(0,0)"/>
<path d="" fill="#DCB053" transform="translate(0,0)"/>
<path d="" fill="#E3B655" transform="translate(0,0)"/>
<path d="" fill="#E0B554" transform="translate(0,0)"/>
<path d="" fill="#D4A84E" transform="translate(0,0)"/>
<path d="" fill="#E1B654" transform="translate(0,0)"/>
<path d="" fill="#D5AA50" transform="translate(0,0)"/>
<path d="" fill="#E4B557" transform="translate(0,0)"/>
<path d="" fill="#E1B355" transform="translate(0,0)"/>
<path d="" fill="#E1B653" transform="translate(0,0)"/>
<path d="" fill="#E4B656" transform="translate(0,0)"/>
<path d="" fill="#D0A64C" transform="translate(0,0)"/>
<path d="" fill="#E0B353" transform="translate(0,0)"/>
<path d="" fill="#E0B554" transform="translate(0,0)"/>
<path d="" fill="#DFB354" transform="translate(0,0)"/>
<path d="" fill="#E3B857" transform="translate(0,0)"/>
<path d="" fill="#D5AB4C" transform="translate(0,0)"/>
<path d="" fill="#E2B553" transform="translate(0,0)"/>
<path d="" fill="#D8AA4D" transform="translate(0,0)"/>
<path d="" fill="#E2B454" transform="translate(0,0)"/>
<path d="" fill="#E1B554" transform="translate(0,0)"/>
<path d="" fill="#DEB053" transform="translate(0,0)"/>
<path d="" fill="#D4AA4D" transform="translate(0,0)"/>
<path d="" fill="#CEA44C" transform="translate(0,0)"/>
<path d="" fill="#E4B555" transform="translate(0,0)"/>
<path d="" fill="#E0B356" transform="translate(0,0)"/>
<path d="" fill="#E2B556" transform="translate(0,0)"/>
<path d="" fill="#E1B457" transform="translate(0,0)"/>
<path d="" fill="#DFB453" transform="translate(0,0)"/>
<path d="" fill="#E3B855" transform="translate(0,0)"/>
<path d="" fill="#43300E" transform="translate(0,0)"/>
<path d="" fill="#D5AA4E" transform="translate(0,0)"/>
<path d="" fill="#D3A94D" transform="translate(0,0)"/>
<path d="" fill="#E5B856" transform="translate(0,0)"/>
<path d="" fill="#D3A84D" transform="translate(0,0)"/>
<path d="" fill="#D3A74D" transform="translate(0,0)"/>
<path d="" fill="#E2B653" transform="translate(0,0)"/>
<path d="" fill="#E5B758" transform="translate(0,0)"/>
<path d="" fill="#E1B556" transform="translate(0,0)"/>
<path d="" fill="#E0B257" transform="translate(0,0)"/>
<path d="" fill="#D2A84B" transform="translate(0,0)"/>
<path d="" fill="#E6B956" transform="translate(0,0)"/>
<path d="" fill="#E0B458" transform="translate(0,0)"/>
<path d="" fill="#DFB254" transform="translate(0,0)"/>
<path d="" fill="#D4AA4F" transform="translate(0,0)"/>
<path d="" fill="#E4B656" transform="translate(0,0)"/>
<path d="" fill="#E4B857" transform="translate(0,0)"/>
<path d="" fill="#E4B656" transform="translate(0,0)"/>
<path d="" fill="#E0B256" transform="translate(0,0)"/>
<path d="" fill="#E5B556" transform="translate(0,0)"/>
<path d="" fill="#E0B252" transform="translate(0,0)"/>
<path d="" fill="#D0A54E" transform="translate(0,0)"/>
<path d="" fill="#E0B153" transform="translate(0,0)"/>
<path d="" fill="#D1A74D" transform="translate(0,0)"/>
<path d="" fill="#D2A74D" transform="translate(0,0)"/>
<path d="" fill="#DFB353" transform="translate(0,0)"/>
<path d="" fill="#E2B356" transform="translate(0,0)"/>
<path d="" fill="#E2B456" transform="translate(0,0)"/>
<path d="" fill="#DFB356" transform="translate(0,0)"/>
<path d="" fill="#E0B355" transform="translate(0,0)"/>
<path d="" fill="#D1A74D" transform="translate(0,0)"/>
<path d="" fill="#E0B256" transform="translate(0,0)"/>
<path d="" fill="#E3B554" transform="translate(0,0)"/>
<path d="" fill="#DFB054" transform="translate(0,0)"/>
<path d="" fill="#E2B353" transform="translate(0,0)"/>
<path d="" fill="#D0A54B" transform="translate(0,0)"/>
<path d="" fill="#E5B756" transform="translate(0,0)"/>
<path d="" fill="#D0A648" transform="translate(0,0)"/>
<path d="" fill="#E1B455" transform="translate(0,0)"/>
<path d="" fill="#CBA34D" transform="translate(0,0)"/>
<path d="" fill="#E3B656" transform="translate(0,0)"/>
<path d="" fill="#E4B655" transform="translate(0,0)"/>
<path d="" fill="#DFB454" transform="translate(0,0)"/>
<path d="" fill="#DFB252" transform="translate(0,0)"/>
<path d="" fill="#D4AA4F" transform="translate(0,0)"/>
<path d="" fill="#CC9E48" transform="translate(0,0)"/>
<path d="" fill="#E4B655" transform="translate(0,0)"/>
<path d="" fill="#E2B556" transform="translate(0,0)"/>
<path d="" fill="#E2B351" transform="translate(0,0)"/>
<path d="" fill="#DEB153" transform="translate(0,0)"/>
<path d="" fill="#DFB455" transform="translate(0,0)"/>
<path d="" fill="#CEA34D" transform="translate(0,0)"/>
<path d="" fill="#E0B655" transform="translate(0,0)"/>
<path d="" fill="#E3B854" transform="translate(0,0)"/>
<path d="" fill="#E2B254" transform="translate(0,0)"/>
<path d="" fill="#DEB254" transform="translate(0,0)"/>
<path d="" fill="#D5A84C" transform="translate(0,0)"/>
<path d="" fill="#E3B555" transform="translate(0,0)"/>
<path d="" fill="#E1B455" transform="translate(0,0)"/>
<path d="" fill="#E1B357" transform="translate(0,0)"/>
<path d="" fill="#E1B555" transform="translate(0,0)"/>
<path d="" fill="#CCA34B" transform="translate(0,0)"/>
<path d="" fill="#DFB353" transform="translate(0,0)"/>
<path d="" fill="#E1B352" transform="translate(0,0)"/>
<path d="" fill="#DFB355" transform="translate(0,0)"/>
<path d="" fill="#E1B255" transform="translate(0,0)"/>
<path d="" fill="#DDB154" transform="translate(0,0)"/>
<path d="" fill="#E1B553" transform="translate(0,0)"/>
<path d="" fill="#745722" transform="translate(0,0)"/>
<path d="" fill="#DEB154" transform="translate(0,0)"/>
<path d="" fill="#E1B453" transform="translate(0,0)"/>
<path d="" fill="#C99F4A" transform="translate(0,0)"/>
<path d="" fill="#E3B654" transform="translate(0,0)"/>
<path d="" fill="#E0B353" transform="translate(0,0)"/>
<path d="" fill="#DCB052" transform="translate(0,0)"/>
<path d="" fill="#D6AA4F" transform="translate(0,0)"/>
<path d="" fill="#C99E48" transform="translate(0,0)"/>
<path d="" fill="#41300F" transform="translate(0,0)"/>
<path d="" fill="#C89D49" transform="translate(0,0)"/>
<path d="" fill="#E4B554" transform="translate(0,0)"/>
<path d="" fill="#3E2D0D" transform="translate(0,0)"/>
<path d="" fill="#E0B353" transform="translate(0,0)"/>
<path d="" fill="#E0B252" transform="translate(0,0)"/>
<path d="" fill="#C69C47" transform="translate(0,0)"/>
<path d="" fill="#C49A48" transform="translate(0,0)"/>
<path d="" fill="#DFB153" transform="translate(0,0)"/>
<path d="" fill="#DEB253" transform="translate(0,0)"/>
<path d="" fill="#E2B353" transform="translate(0,0)"/>
<path d="" fill="#D3A94D" transform="translate(0,0)"/>
<path d="" fill="#C39845" transform="translate(0,0)"/>
<path d="" fill="#DFB353" transform="translate(0,0)"/>
<path d="" fill="#D4A94E" transform="translate(0,0)"/>
<path d="" fill="#E1B252" transform="translate(0,0)"/>
<path d="" fill="#DEB254" transform="translate(0,0)"/>
<path d="" fill="#DEB14F" transform="translate(0,0)"/>
<path d="" fill="#DEB252" transform="translate(0,0)"/>
<path d="" fill="#DEB352" transform="translate(0,0)"/>
<path d="" fill="#E0B353" transform="translate(0,0)"/>
<path d="" fill="#DEB353" transform="translate(0,0)"/>
<path d="" fill="#DDB252" transform="translate(0,0)"/>
<path d="" fill="#DEB252" transform="translate(0,0)"/>
<path d="" fill="#DFB354" transform="translate(0,0)"/>
<path d="" fill="#DFB253" transform="translate(0,0)"/>
<path d="" fill="#D7AA4E" transform="translate(0,0)"/>
<path d="" fill="#DEB250" transform="translate(0,0)"/>
<path d="" fill="#DCB151" transform="translate(0,0)"/>
<path d="" fill="#DDB151" transform="translate(0,0)"/>
<path d="" fill="#DEB153" transform="translate(0,0)"/>
<path d="" fill="#D5AA4E" transform="translate(0,0)"/>
<path d="" fill="#DBAE50" transform="translate(0,0)"/>
<path d="" fill="#DAAF52" transform="translate(0,0)"/>
<path d="" fill="#DBAF51" transform="translate(0,0)"/>
<path d="" fill="#E0B14F" transform="translate(0,0)"/>
<path d="" fill="#D9AF51" transform="translate(0,0)"/>
<path d="" fill="#DEB152" transform="translate(0,0)"/>
<path d="" fill="#44300F" transform="translate(0,0)"/>
<path d="" fill="#D9AA4F" transform="translate(0,0)"/>
<path d="" fill="#D8AB4F" transform="translate(0,0)"/>
<path d="" fill="#D7AB4E" transform="translate(0,0)"/>
<path d="" fill="#DDAF50" transform="translate(0,0)"/>
<path d="" fill="#DEB152" transform="translate(0,0)"/>
<path d="" fill="#DCAF52" transform="translate(0,0)"/>
<path d="" fill="#D7AC50" transform="translate(0,0)"/>
<path d="" fill="#D3A84D" transform="translate(0,0)"/>
<path d="" fill="#E1B152" transform="translate(0,0)"/>
<path d="" fill="#D2A74D" transform="translate(0,0)"/>
<path d="" fill="#D3A84C" transform="translate(0,0)"/>
<path d="" fill="#DFB152" transform="translate(0,0)"/>
<path d="" fill="#D6AB50" transform="translate(0,0)"/>
<path d="" fill="#D1A64A" transform="translate(0,0)"/>
<path d="" fill="#E0B054" transform="translate(0,0)"/>
<path d="" fill="#C79E47" transform="translate(0,0)"/>
<path d="" fill="#CA9D47" transform="translate(0,0)"/>
<path d="" fill="#DEB254" transform="translate(0,0)"/>
<path d="" fill="#DEB153" transform="translate(0,0)"/>
<path d="" fill="#BD9442" transform="translate(0,0)"/>
<path d="" fill="#D9B054" transform="translate(0,0)"/>
<path d="" fill="#4A3711" transform="translate(0,0)"/>
<path d="" fill="#DFB152" transform="translate(0,0)"/>
<path d="" fill="#DEB252" transform="translate(0,0)"/>
<path d="" fill="#DDB051" transform="translate(0,0)"/>
<path d="" fill="#DEB252" transform="translate(0,0)"/>
<path d="" fill="#DCB152" transform="translate(0,0)"/>
<path d="" fill="#DDB254" transform="translate(0,0)"/>
<path d="" fill="#DFB153" transform="translate(0,0)"/>
<path d="" fill="#DBAF51" transform="translate(0,0)"/>
<path d="" fill="#92702E" transform="translate(0,0)"/>
<path d="" fill="#916E2E" transform="translate(0,0)"/>
<path d="" fill="#CCA047" transform="translate(0,0)"/>
<path d="" fill="#DBAE52" transform="translate(0,0)"/>
<path d="" fill="#DBAF4F" transform="translate(0,0)"/>
<path d="" fill="#8B6A2C" transform="translate(0,0)"/>
<path d="" fill="#E2B153" transform="translate(0,0)"/>
<path d="" fill="#DAAC50" transform="translate(0,0)"/>
<path d="" fill="#8B692B" transform="translate(0,0)"/>
<path d="" fill="#D8AB51" transform="translate(0,0)"/>
<path d="" fill="#A88339" transform="translate(0,0)"/>
<path d="" fill="#D5A94F" transform="translate(0,0)"/>
<path d="" fill="#E0B353" transform="translate(0,0)"/>
<path d="" fill="#87672D" transform="translate(0,0)"/>
<path d="" fill="#DEB255" transform="translate(0,0)"/>
<path d="" fill="#D2A64B" transform="translate(0,0)"/>
<path d="" fill="#A17B34" transform="translate(0,0)"/>
<path d="" fill="#DBAC50" transform="translate(0,0)"/>
<path d="" fill="#9C7734" transform="translate(0,0)"/>
<path d="" fill="#E0B453" transform="translate(0,0)"/>
<path d="" fill="#DAAD51" transform="translate(0,0)"/>
<path d="" fill="#E1B355" transform="translate(0,0)"/>
<path d="" fill="#E0B353" transform="translate(0,0)"/>
<path d="" fill="#D8AB51" transform="translate(0,0)"/>
<path d="" fill="#45320F" transform="translate(0,0)"/>
<path d="" fill="#806028" transform="translate(0,0)"/>
<path d="" fill="#A27D36" transform="translate(0,0)"/>
<path d="" fill="#C59945" transform="translate(0,0)"/>
<path d="" fill="#E3B555" transform="translate(0,0)"/>
<path d="" fill="#D5A74D" transform="translate(0,0)"/>
<path d="" fill="#D4A74D" transform="translate(0,0)"/>
<path d="" fill="#DFB357" transform="translate(0,0)"/>
<path d="" fill="#E2B554" transform="translate(0,0)"/>
<path d="" fill="#E0B555" transform="translate(0,0)"/>
<path d="" fill="#E0B453" transform="translate(0,0)"/>
<path d="" fill="#E0B453" transform="translate(0,0)"/>
<path d="" fill="#E1B352" transform="translate(0,0)"/>
<path d="" fill="#E0B352" transform="translate(0,0)"/>
<path d="" fill="#E0B355" transform="translate(0,0)"/>
<path d="" fill="#E0B253" transform="translate(0,0)"/>
<path d="" fill="#DFB252" transform="translate(0,0)"/>
<path d="" fill="#DFB253" transform="translate(0,0)"/>
<path d="" fill="#E0B253" transform="translate(0,0)"/>
<path d="" fill="#DEB052" transform="translate(0,0)"/>
<path d="" fill="#DAAD50" transform="translate(0,0)"/>
<path d="" fill="#DBAC51" transform="translate(0,0)"/>
<path d="" fill="#DCB254" transform="translate(0,0)"/>
<path d="" fill="#DDAF4F" transform="translate(0,0)"/>
<path d="" fill="#3F2C0D" transform="translate(0,0)"/>
<path d="" fill="#D7AA50" transform="translate(0,0)"/>
<path d="" fill="#D1A54C" transform="translate(0,0)"/>
<path d="" fill="#E2B656" transform="translate(0,0)"/>
<path d="" fill="#DFB355" transform="translate(0,0)"/>
<path d="" fill="#D0A44C" transform="translate(0,0)"/>
<path d="" fill="#DEB053" transform="translate(0,0)"/>
<path d="" fill="#957331" transform="translate(0,0)"/>
<path d="" fill="#D8AC50" transform="translate(0,0)"/>
<path d="" fill="#E3B556" transform="translate(0,0)"/>
<path d="" fill="#D9AB4F" transform="translate(0,0)"/>
<path d="" fill="#D3A94F" transform="translate(0,0)"/>
<path d="" fill="#3E2D0E" transform="translate(0,0)"/>
<path d="" fill="#D9AB50" transform="translate(0,0)"/>
<path d="" fill="#E2B252" transform="translate(0,0)"/>
<path d="" fill="#674D1E" transform="translate(0,0)"/>
<path d="" fill="#8E6D2E" transform="translate(0,0)"/>
<path d="" fill="#B68D3E" transform="translate(0,0)"/>
<path d="" fill="#BF9542" transform="translate(0,0)"/>
<path d="" fill="#E1B456" transform="translate(0,0)"/>
<path d="" fill="#A27E36" transform="translate(0,0)"/>
<path d="" fill="#9B7533" transform="translate(0,0)"/>
<path d="" fill="#D5A94F" transform="translate(0,0)"/>
<path d="" fill="#E1B353" transform="translate(0,0)"/>
<path d="" fill="#D7AC4F" transform="translate(0,0)"/>
<path d="" fill="#C09542" transform="translate(0,0)"/>
<path d="" fill="#D9AC50" transform="translate(0,0)"/>
<path d="" fill="#E1B353" transform="translate(0,0)"/>
<path d="" fill="#795C25" transform="translate(0,0)"/>
<path d="" fill="#D7AA4F" transform="translate(0,0)"/>
<path d="" fill="#E2B654" transform="translate(0,0)"/>
<path d="" fill="#CFA54C" transform="translate(0,0)"/>
<path d="" fill="#E2B354" transform="translate(0,0)"/>
<path d="" fill="#E1B454" transform="translate(0,0)"/>
<path d="" fill="#9C7734" transform="translate(0,0)"/>
<path d="" fill="#D4AA4E" transform="translate(0,0)"/>
<path d="" fill="#E3B455" transform="translate(0,0)"/>
<path d="" fill="#E1B454" transform="translate(0,0)"/>
<path d="" fill="#E0B455" transform="translate(0,0)"/>
<path d="" fill="#E1B353" transform="translate(0,0)"/>
<path d="" fill="#E1B455" transform="translate(0,0)"/>
<path d="" fill="#E3B555" transform="translate(0,0)"/>
<path d="" fill="#E4B654" transform="translate(0,0)"/>
<path d="" fill="#E1B554" transform="translate(0,0)"/>
<path d="" fill="#E3B757" transform="translate(0,0)"/>
<path d="" fill="#E2B555" transform="translate(0,0)"/>
<path d="" fill="#E4B554" transform="translate(0,0)"/>
<path d="" fill="#513C15" transform="translate(0,0)"/>
<path d="" fill="#584116" transform="translate(0,0)"/>
<path d="" fill="#E4B755" transform="translate(0,0)"/>
<path d="" fill="#E0B655" transform="translate(0,0)"/>
<path d="" fill="#E1B454" transform="translate(0,0)"/>
<path d="" fill="#E2B555" transform="translate(0,0)"/>
<path d="" fill="#E3B655" transform="translate(0,0)"/>
<path d="" fill="#E1B255" transform="translate(0,0)"/>
<path d="" fill="#43310F" transform="translate(0,0)"/>
<path d="" fill="#B58D3F" transform="translate(0,0)"/>
<path d="" fill="#D2A950" transform="translate(0,0)"/>
<path d="" fill="#574118" transform="translate(0,0)"/>
<path d="" fill="#E3B857" transform="translate(0,0)"/>
<path d="" fill="#E2B655" transform="translate(0,0)"/>
<path d="" fill="#E4B356" transform="translate(0,0)"/>
<path d="" fill="#D7AB4F" transform="translate(0,0)"/>
<path d="" fill="#E3B556" transform="translate(0,0)"/>
<path d="" fill="#E0B356" transform="translate(0,0)"/>
<path d="" fill="#E2B656" transform="translate(0,0)"/>
<path d="" fill="#E1B356" transform="translate(0,0)"/>
<path d="" fill="#E2B454" transform="translate(0,0)"/>
<path d="" fill="#3E2D0E" transform="translate(0,0)"/>
<path d="" fill="#DFB252" transform="translate(0,0)"/>
<path d="" fill="#8D6D2F" transform="translate(0,0)"/>
<path d="" fill="#D7AB4F" transform="translate(0,0)"/>
<path d="" fill="#E0B355" transform="translate(0,0)"/>
<path d="" fill="#E0B453" transform="translate(0,0)"/>
<path d="" fill="#E1B352" transform="translate(0,0)"/>
<path d="" fill="#E2B554" transform="translate(0,0)"/>
<path d="" fill="#E1B453" transform="translate(0,0)"/>
<path d="" fill="#CBA14A" transform="translate(0,0)"/>
<path d="" fill="#D0A54B" transform="translate(0,0)"/>
<path d="" fill="#B58D3F" transform="translate(0,0)"/>
<path d="" fill="#D7AB50" transform="translate(0,0)"/>
<path d="" fill="#E3B558" transform="translate(0,0)"/>
<path d="" fill="#DDAF51" transform="translate(0,0)"/>
<path d="" fill="#D7AD4F" transform="translate(0,0)"/>
<path d="" fill="#DAAD53" transform="translate(0,0)"/>
<path d="" fill="#DBAE50" transform="translate(0,0)"/>
<path d="" fill="#E3B756" transform="translate(0,0)"/>
<path d="" fill="#D8AE4F" transform="translate(0,0)"/>
<path d="" fill="#E1B651" transform="translate(0,0)"/>
<path d="" fill="#A98239" transform="translate(0,0)"/>
<path d="" fill="#8E6D2D" transform="translate(0,0)"/>
<path d="" fill="#DEB452" transform="translate(0,0)"/>
<path d="" fill="#E0B453" transform="translate(0,0)"/>
<path d="" fill="#E3B54F" transform="translate(0,0)"/>
<path d="" fill="#E2B453" transform="translate(0,0)"/>
<path d="" fill="#E1B354" transform="translate(0,0)"/>
<path d="" fill="#E2B656" transform="translate(0,0)"/>
<path d="" fill="#705522" transform="translate(0,0)"/>
<path d="" fill="#423110" transform="translate(0,0)"/>
<path d="" fill="#D9AD50" transform="translate(0,0)"/>
<path d="" fill="#E2B658" transform="translate(0,0)"/>
<path d="" fill="#E2B755" transform="translate(0,0)"/>
<path d="" fill="#957332" transform="translate(0,0)"/>
<path d="" fill="#D8AD52" transform="translate(0,0)"/>
<path d="" fill="#E4B653" transform="translate(0,0)"/>
<path d="" fill="#E2B455" transform="translate(0,0)"/>
<path d="" fill="#E1B554" transform="translate(0,0)"/>
<path d="" fill="#D9AE51" transform="translate(0,0)"/>
<path d="" fill="#E3B455" transform="translate(0,0)"/>
<path d="" fill="#E6B954" transform="translate(0,0)"/>
<path d="" fill="#DAAE51" transform="translate(0,0)"/>
<path d="" fill="#3E2E0D" transform="translate(0,0)"/>
<path d="" fill="#684E1F" transform="translate(0,0)"/>
<path d="" fill="#DCAE51" transform="translate(0,0)"/>
<path d="" fill="#8B682C" transform="translate(0,0)"/>
<path d="" fill="#DBAE51" transform="translate(0,0)"/>
<path d="" fill="#DBAF50" transform="translate(0,0)"/>
<path d="" fill="#E4B755" transform="translate(0,0)"/>
<path d="" fill="#D9AE52" transform="translate(0,0)"/>
<path d="" fill="#D9AE52" transform="translate(0,0)"/>
<path d="" fill="#E1B555" transform="translate(0,0)"/>
<path d="" fill="#463510" transform="translate(0,0)"/>
<path d="" fill="#B89041" transform="translate(0,0)"/>
<path d="" fill="#E2B456" transform="translate(0,0)"/>
<path d="" fill="#E4B555" transform="translate(0,0)"/>
<path d="" fill="#D8AD4F" transform="translate(0,0)"/>
<path d="" fill="#E1B655" transform="translate(0,0)"/>
<path d="" fill="#E0B454" transform="translate(0,0)"/>
<path d="" fill="#42310E" transform="translate(0,0)"/>
<path d="" fill="#DFB454" transform="translate(0,0)"/>
<path d="" fill="#E2B354" transform="translate(0,0)"/>
<path d="" fill="#E1B352" transform="translate(0,0)"/>
<path d="" fill="#E1B353" transform="translate(0,0)"/>
<path d="" fill="#4C3813" transform="translate(0,0)"/>
<path d="" fill="#E0B555" transform="translate(0,0)"/>
<path d="" fill="#E2B654" transform="translate(0,0)"/>
<path d="" fill="#412F0F" transform="translate(0,0)"/>
<path d="" fill="#E3B355" transform="translate(0,0)"/>
<path d="" fill="#E2B553" transform="translate(0,0)"/>
<path d="" fill="#D9AF50" transform="translate(0,0)"/>
<path d="" fill="#3E2D0D" transform="translate(0,0)"/>
<path d="" fill="#41310D" transform="translate(0,0)"/>
<path d="" fill="#E2B452" transform="translate(0,0)"/>
<path d="" fill="#D9AD51" transform="translate(0,0)"/>
<path d="" fill="#D8AD51" transform="translate(0,0)"/>
<path d="" fill="#E0B552" transform="translate(0,0)"/>
<path d="" fill="#E1B454" transform="translate(0,0)"/>
<path d="" fill="#E1B454" transform="translate(0,0)"/>
<path d="" fill="#DFB454" transform="translate(0,0)"/>
<path d="" fill="#DAAC50" transform="translate(0,0)"/>
<path d="" fill="#E1B353" transform="translate(0,0)"/>
<path d="" fill="#E0B354" transform="translate(0,0)"/>
<path d="" fill="#E3B453" transform="translate(0,0)"/>
<path d="" fill="#553F18" transform="translate(0,0)"/>
<path d="" fill="#DFB454" transform="translate(0,0)"/>
<path d="" fill="#E0B253" transform="translate(0,0)"/>
<path d="" fill="#E1B555" transform="translate(0,0)"/>
<path d="" fill="#A78138" transform="translate(0,0)"/>
<path d="" fill="#E1B555" transform="translate(0,0)"/>
<path d="" fill="#D7AE51" transform="translate(0,0)"/>
<path d="" fill="#E2B555" transform="translate(0,0)"/>
<path d="" fill="#DFB355" transform="translate(0,0)"/>
<path d="" fill="#E1B555" transform="translate(0,0)"/>
<path d="" fill="#D6AD51" transform="translate(0,0)"/>
<path d="" fill="#E0B556" transform="translate(0,0)"/>
<path d="" fill="#D8AC4F" transform="translate(0,0)"/>
<path d="" fill="#E3B256" transform="translate(0,0)"/>
<path d="" fill="#C69B46" transform="translate(0,0)"/>
<path d="" fill="#E2B354" transform="translate(0,0)"/>
<path d="" fill="#E0B353" transform="translate(0,0)"/>
<path d="" fill="#E1B354" transform="translate(0,0)"/>
<path d="" fill="#E2B452" transform="translate(0,0)"/>
<path d="" fill="#E3B555" transform="translate(0,0)"/>
<path d="" fill="#D5AB50" transform="translate(0,0)"/>
<path d="" fill="#E3B353" transform="translate(0,0)"/>
<path d="" fill="#E3B554" transform="translate(0,0)"/>
<path d="" fill="#A8823A" transform="translate(0,0)"/>
<path d="" fill="#694F1F" transform="translate(0,0)"/>
<path d="" fill="#D5AA4F" transform="translate(0,0)"/>
<path d="" fill="#CFA54B" transform="translate(0,0)"/>
<path d="" fill="#CDA34A" transform="translate(0,0)"/>
<path d="" fill="#826428" transform="translate(0,0)"/>
<path d="" fill="#86662C" transform="translate(0,0)"/>
<path d="" fill="#554018" transform="translate(0,0)"/>
<path d="" fill="#C89E48" transform="translate(0,0)"/>
<path d="" fill="#D1A64A" transform="translate(0,0)"/>
<path d="" fill="#CCA34B" transform="translate(0,0)"/>
<path d="" fill="#D6AA4D" transform="translate(0,0)"/>
<path d="" fill="#503A14" transform="translate(0,0)"/>
<path d="" fill="#89692D" transform="translate(0,0)"/>
<path d="" fill="#A8833B" transform="translate(0,0)"/>
<path d="" fill="#795C27" transform="translate(0,0)"/>
<path d="" fill="#9B7934" transform="translate(0,0)"/>
<path d="" fill="#A58038" transform="translate(0,0)"/>
<path d="" fill="#84652C" transform="translate(0,0)"/>
<path d="" fill="#4A3813" transform="translate(0,0)"/>
<path d="" fill="#2F2207" transform="translate(0,0)"/>
<path d="" fill="#2D2108" transform="translate(0,0)"/>
<path d="" fill="#2B1F06" transform="translate(0,0)"/>
<path d="" fill="#302208" transform="translate(0,0)"/>
<path d="" fill="#281C04" transform="translate(0,0)"/>
<path d="" fill="#37270A" transform="translate(0,0)"/>
<path d="" fill="#3C2B0C" transform="translate(0,0)"/>
<path d="" fill="#6A4E20" transform="translate(0,0)"/>
<path d="" fill="#60481B" transform="translate(0,0)"/>
<path d="" fill="#291B03" transform="translate(0,0)"/>
<path d="" fill="#4E3C14" transform="translate(0,0)"/>
<path d="" fill="#61481B" transform="translate(0,0)"/>
<path d="" fill="#634B1D" transform="translate(0,0)"/>
<path d="" fill="#36260B" transform="translate(0,0)"/>
<path d="" fill="#594318" transform="translate(0,0)"/>
<path d="" fill="#533C16" transform="translate(0,0)"/>
<path d="" fill="#412F10" transform="translate(0,0)"/>
<path d="" fill="#5A4317" transform="translate(0,0)"/>
<path d="" fill="#4C3713" transform="translate(0,0)"/>
<path d="" fill="#584018" transform="translate(0,0)"/>
<path d="" fill="#261A04" transform="translate(0,0)"/>
<path d="" fill="#251A04" transform="translate(0,0)"/>
<path d="" fill="#543D15" transform="translate(0,0)"/>
<path d="" fill="#483510" transform="translate(0,0)"/>
<path d="" fill="#4F3913" transform="translate(0,0)"/>
<path d="" fill="#513C13" transform="translate(0,0)"/>
<path d="" fill="#523B15" transform="translate(0,0)"/>
<path d="" fill="#4A3512" transform="translate(0,0)"/>
<path d="" fill="#463410" transform="translate(0,0)"/>
<path d="" fill="#241803" transform="translate(0,0)"/>
<path d="" fill="#2A1D04" transform="translate(0,0)"/>
<path d="" fill="#4C3813" transform="translate(0,0)"/>
<path d="" fill="#523C14" transform="translate(0,0)"/>
<path d="" fill="#493611" transform="translate(0,0)"/>
</svg>
